<svg width="96" height="96" viewBox="0 0 96 96" fill="none" xmlns="http://www.w3.org/2000/svg">
  <circle cx="48" cy="48" r="43" fill="#FFF9EA" stroke="#C58A2A" stroke-width="3"/>
  <circle cx="38" cy="39" r="9" fill="#FFFDF7" stroke="#8A5519" stroke-width="3"/>
  <circle cx="58" cy="39" r="9" fill="#FFFDF7" stroke="#8A5519" stroke-width="3"/>
  <path d="M24 69C27 57 32 52 38 52C44 52 48 57 48 69M48 69C48 57 52 52 58 52C64 52 69 57 72 69" stroke="#8A5519" stroke-width="4" stroke-linecap="round"/>
  <path d="M48 30C52 22 64 25 64 34C64 44 48 52 48 52C48 52 32 44 32 34C32 25 44 22 48 30Z" fill="#D7B33F" stroke="#F07A35" stroke-width="2.5"/>
</svg>
